<svg width="25" height="24" viewBox="0 0 25 24" fill="none" xmlns="http://www.w3.org/2000/svg">
<path d="M20.4229 5.5L19.8031 15.5251C19.6448 18.0864 19.5656 19.3671 18.9236 20.2879C18.6062 20.7431 18.1975 21.1273 17.7236 21.416C16.765 22 15.4818 22 12.9156 22C10.346 22 9.06116 22 8.1019 21.4149C7.62765 21.1257 7.21885 20.7408 6.90154 20.2848C6.25973 19.3626 6.1823 18.0801 6.02746 15.5152L5.42285 5.5" stroke="#FF3321" stroke-width="1.5" stroke-linecap="round"/>
<path d="M21.9229 5.5H3.92285" stroke="#FF3321" stroke-width="1.5" stroke-linecap="round"/>
<path d="M16.9784 5.5L16.2957 4.09173C15.8422 3.15626 15.6155 2.68852 15.2244 2.39681C15.1376 2.3321 15.0458 2.27454 14.9497 2.2247C14.5166 2 13.9968 2 12.9572 2C11.8915 2 11.3586 2 10.9183 2.23412C10.8208 2.28601 10.7276 2.3459 10.64 2.41317C10.2443 2.7167 10.0233 3.20155 9.58127 4.17126L8.97559 5.5" stroke="#FF3321" stroke-width="1.5" stroke-linecap="round"/>
<path d="M10.4229 16.5L10.4229 10.5" stroke="#FF3321" stroke-width="1.5" stroke-linecap="round"/>
<path d="M15.4229 16.5L15.4229 10.5" stroke="#FF3321" stroke-width="1.5" stroke-linecap="round"/>
</svg>
