<svg width="21" height="21" viewBox="0 0 21 21" fill="none" xmlns="http://www.w3.org/2000/svg">
<path d="M10.5 11.375C10.9832 11.375 11.375 10.9832 11.375 10.5C11.375 10.0168 10.9832 9.625 10.5 9.625C10.0168 9.625 9.625 10.0168 9.625 10.5C9.625 10.9832 10.0168 11.375 10.5 11.375Z" stroke="black" stroke-width="2" stroke-linecap="round" stroke-linejoin="round"/>
<path d="M10.5 5.25C10.9832 5.25 11.375 4.85825 11.375 4.375C11.375 3.89175 10.9832 3.5 10.5 3.5C10.0168 3.5 9.625 3.89175 9.625 4.375C9.625 4.85825 10.0168 5.25 10.5 5.25Z" stroke="black" stroke-width="2" stroke-linecap="round" stroke-linejoin="round"/>
<path d="M10.5 17.5C10.9832 17.5 11.375 17.1082 11.375 16.625C11.375 16.1418 10.9832 15.75 10.5 15.75C10.0168 15.75 9.625 16.1418 9.625 16.625C9.625 17.1082 10.0168 17.5 10.5 17.5Z" stroke="black" stroke-width="2" stroke-linecap="round" stroke-linejoin="round"/>
</svg>
