<svg width="25" height="24" viewBox="0 0 25 24" fill="none" xmlns="http://www.w3.org/2000/svg">
<path d="M14.9966 3.88545C15.7417 3.07808 16.1143 2.6744 16.5103 2.43893C17.4656 1.87076 18.6419 1.85309 19.6132 2.39232C20.0157 2.6158 20.3998 3.00812 21.1679 3.79276C21.936 4.5774 22.32 4.96972 22.5388 5.38093C23.0667 6.37312 23.0494 7.57479 22.4932 8.5507C22.2627 8.95516 21.8675 9.33578 21.0772 10.097L11.6735 19.1543C10.1757 20.5969 9.42685 21.3182 8.49091 21.6837C7.55497 22.0493 6.52605 22.0224 4.46822 21.9686L4.18823 21.9613C3.56176 21.9449 3.24852 21.9367 3.06644 21.73C2.88435 21.5234 2.90921 21.2043 2.95893 20.5662L2.98593 20.2197C3.12586 18.4235 3.19583 17.5255 3.54656 16.7182C3.89729 15.9109 4.50229 15.2555 5.71228 13.9445L14.9966 3.88545Z" stroke="#FBC700" stroke-width="1.5" stroke-linejoin="round"/>
<path d="M13.9229 4L20.9229 11" stroke="#FBC700" stroke-width="1.5" stroke-linejoin="round"/>
<path d="M14.9229 22L22.9229 22" stroke="#FBC700" stroke-width="1.5" stroke-linecap="round" stroke-linejoin="round"/>
</svg>
