<svg width="32" height="32" viewBox="0 0 32 32" fill="none" xmlns="http://www.w3.org/2000/svg">
<path d="M1.74854 16.316C1.74854 9.38186 1.74854 5.91478 3.9027 3.76061C6.05687 1.60645 9.52395 1.60645 16.4581 1.60645C23.3923 1.60645 26.8593 1.60645 29.0135 3.76061C31.1677 5.91478 31.1677 9.38186 31.1677 16.316C31.1677 23.2502 31.1677 26.7173 29.0135 28.8714C26.8593 31.0256 23.3923 31.0256 16.4581 31.0256C9.52395 31.0256 6.05687 31.0256 3.9027 28.8714C1.74854 26.7173 1.74854 23.2502 1.74854 16.316Z" stroke="#4C5B66" stroke-width="1.39355"/>
<circle cx="23.4256" cy="9.34783" r="2.32256" stroke="#4C5B66" stroke-width="1.39355"/>
<path d="M0.974121 19.623C2.00632 19.4838 3.04987 19.415 4.09517 19.4174C8.51723 19.3306 12.831 20.6101 16.2667 23.0275C19.4532 25.2694 21.6921 28.3549 22.6514 31.8003" stroke="#4C5B66" stroke-width="1.39355" stroke-linejoin="round"/>
<path d="M18.0059 25.6064C20.6405 23.5522 23.4786 22.4984 26.3457 22.5097C27.9716 22.5081 29.5896 22.8528 31.1671 23.5342" stroke="#4C5B66" stroke-width="1.39355" stroke-linejoin="round"/>
</svg>
