<svg width="79" height="79" viewBox="0 0 79 79" fill="none" xmlns="http://www.w3.org/2000/svg">
<path opacity="0.21" fill-rule="evenodd" clip-rule="evenodd" d="M0.0424805 39.3546V48.539C0.0424805 65.2055 13.5533 78.7163 30.2198 78.7163H39.4042H48.5886C65.2551 78.7163 78.7659 65.2055 78.7659 48.539V39.3546V30.1702C78.7659 13.5038 65.255 -0.00708008 48.5886 -0.00708008H39.4042H30.2198C13.5533 -0.00708008 0.0424805 13.5038 0.0424805 30.1702V39.3546Z" fill="#8280FF"/>
<path fill-rule="evenodd" clip-rule="evenodd" d="M16 37.8974L32.9262 47.6698C33.1084 47.775 33.2996 47.851 33.4941 47.8992V66.8522L17.2072 57.2136C16.4589 56.7708 16 55.9659 16 55.0964V37.8974ZM55.3614 37.6377V55.0965C55.3614 55.9659 54.9025 56.7708 54.1542 57.2136L37.8673 66.8523V47.7333C37.907 47.7134 37.9463 47.6923 37.9852 47.6698L55.3614 37.6377Z" fill="#3D42DF"/>
<path opacity="0.499209" fill-rule="evenodd" clip-rule="evenodd" d="M16.5317 33.1543C16.7385 32.8932 16.9994 32.6725 17.3037 32.5105L34.5244 23.3383C35.2473 22.9533 36.1145 22.9533 36.8374 23.3383L54.0582 32.5105C54.2927 32.6354 54.5015 32.7951 54.6796 32.9814L35.7989 43.8822C35.6747 43.9538 35.5602 44.0359 35.4559 44.1265C35.3516 44.0359 35.2372 43.9538 35.113 43.8822L16.5317 33.1543Z" fill="#3D42DF"/>
<path fill-rule="evenodd" clip-rule="evenodd" d="M44.1558 17.4406L51.4977 21.6794C51.5768 21.7251 51.6597 21.7581 51.7441 21.779V30.0001L44.6794 25.8192C44.3548 25.6271 44.1558 25.278 44.1558 24.9009V17.4406ZM61.2292 17.3279V24.9009C61.2292 25.278 61.0302 25.6271 60.7056 25.8192L53.6409 30.0001V21.707C53.6582 21.6984 53.6752 21.6892 53.6921 21.6794L61.2292 17.3279Z" fill="#3D42DF"/>
<path opacity="0.499209" fill-rule="evenodd" clip-rule="evenodd" d="M44.3862 15.3831C44.4759 15.2698 44.5891 15.1741 44.7211 15.1038L52.1908 11.1253C52.5044 10.9582 52.8805 10.9582 53.1941 11.1253L60.6638 15.1038C60.7655 15.158 60.8561 15.2273 60.9334 15.3081L52.7436 20.0364C52.6897 20.0675 52.6401 20.1031 52.5949 20.1424C52.5496 20.1031 52.5 20.0675 52.4461 20.0364L44.3862 15.3831Z" fill="#3D42DF"/>
</svg>
