<svg width="79" height="79" viewBox="0 0 79 79" fill="none" xmlns="http://www.w3.org/2000/svg">
<path opacity="0.21" fill-rule="evenodd" clip-rule="evenodd" d="M0.28418 39.3546V48.539C0.28418 65.2055 13.795 78.7163 30.4615 78.7163H39.6459H48.8303C65.4967 78.7163 79.0076 65.2055 79.0076 48.539V39.3546V30.1702C79.0076 13.5038 65.4967 -0.00708008 48.8303 -0.00708008H39.6459H30.4615C13.795 -0.00708008 0.28418 13.5038 0.28418 30.1702V39.3546Z" fill="#4AD991"/>
<path d="M25.3588 53.6415H55.9735C57.1007 53.6415 58.0145 54.5553 58.0145 55.6825C58.0145 56.8097 57.1007 57.7234 55.9735 57.7234H23.3178C22.1906 57.7234 21.2769 56.8097 21.2769 55.6825V23.0268C21.2769 21.8996 22.1906 20.9858 23.3178 20.9858C24.445 20.9858 25.3588 21.8996 25.3588 23.0268V53.6415Z" fill="#4AD991"/>
<path opacity="0.5" d="M32.9704 44.8322C32.1994 45.6546 30.9078 45.6962 30.0855 44.9253C29.2632 44.1544 29.2215 42.8627 29.9924 42.0404L37.6461 33.8765C38.3917 33.0812 39.6307 33.0122 40.4599 33.7199L46.5007 38.8746L54.3712 28.9053C55.0697 28.0206 56.3531 27.8696 57.2378 28.568C58.1225 29.2665 58.2735 30.5499 57.5751 31.4346L48.3907 43.0682C47.6733 43.9769 46.3446 44.1076 45.4639 43.3561L39.2919 38.0893L32.9704 44.8322Z" fill="#4AD991"/>
</svg>
