<svg width="79" height="79" viewBox="0 0 79 79" fill="none" xmlns="http://www.w3.org/2000/svg">
<path opacity="0.21" fill-rule="evenodd" clip-rule="evenodd" d="M0.163086 39.3546V48.539C0.163086 65.2055 13.6739 78.7163 30.3404 78.7163H39.5248H48.7092C65.3757 78.7163 78.8865 65.2055 78.8865 48.539V39.3546V30.1702C78.8865 13.5038 65.3756 -0.00708008 48.7092 -0.00708008H39.5248H30.3404C13.6739 -0.00708008 0.163086 13.5038 0.163086 30.1702V39.3546Z" fill="#FEC53D"/>
<path fill-rule="evenodd" clip-rule="evenodd" d="M19.8442 31.8974L36.7704 41.6698C36.9527 41.775 37.1438 41.851 37.3383 41.8992V60.8522L21.0514 51.2136C20.3032 50.7708 19.8442 49.9659 19.8442 49.0964V31.8974ZM59.2056 31.6377V49.0965C59.2056 49.9659 58.7467 50.7708 57.9984 51.2136L41.7115 60.8523V41.7333C41.7512 41.7134 41.7905 41.6923 41.8295 41.6698L59.2056 31.6377Z" fill="#FEC53D"/>
<path opacity="0.499209" fill-rule="evenodd" clip-rule="evenodd" d="M20.376 27.1543C20.5827 26.8932 20.8437 26.6725 21.1479 26.5105L38.3687 17.3383C39.0916 16.9533 39.9587 16.9533 40.6817 17.3383L57.9024 26.5105C58.1369 26.6354 58.3457 26.7951 58.5238 26.9814L39.6431 37.8822C39.5189 37.9538 39.4045 38.0359 39.3002 38.1265C39.1959 38.0359 39.0814 37.9538 38.9572 37.8822L20.376 27.1543Z" fill="#FEC53D"/>
</svg>
