<svg width="20" height="17" viewBox="0 0 20 17" fill="none" xmlns="http://www.w3.org/2000/svg">
<path d="M3 0.620117C3.35938 0.620117 3.66875 0.876055 3.7375 1.2298L3.78437 1.62012H16.9312C17.5656 1.62012 18.0719 2.25293 17.8937 2.89074L16.8 6.77324C16.3844 6.67324 15.9469 6.62012 15.5 6.62012C13.3625 6.62012 11.5094 7.83887 10.6 9.62012H5.33437L5.62187 11.1201H10.0906C10.0031 11.4451 9.97188 11.7795 9.97188 12.1201C9.97188 12.2889 10.0063 12.4545 10.0219 12.6201H4.97188C4.64062 12.6201 4.33125 12.3639 4.2625 12.0107L2.37937 2.12012H0.75C0.335938 2.12012 0 1.78449 0 1.37012C0 0.956055 0.335938 0.620127 0.75 0.620127L3 0.620117ZM4 15.1201C4 14.292 4.67188 13.6201 5.5 13.6201C6.32812 13.6201 7 14.292 7 15.1201C7 15.9482 6.32812 16.6201 5.5 16.6201C4.67188 16.6201 4 15.9482 4 15.1201ZM15.5 7.62012C17.9844 7.62012 20 9.63574 20 12.1201C20 14.6045 17.9844 16.6201 15.5 16.6201C13.0156 16.6201 11 14.6045 11 12.1201C11 9.63574 13.0156 7.62012 15.5 7.62012ZM17.5 12.6201C17.775 12.6201 18 12.3951 18 12.1201C18 11.8451 17.775 11.6201 17.5 11.6201H16V10.1201C16 9.84512 15.775 9.62012 15.5 9.62012C15.225 9.62012 15 9.84512 15 10.1201V11.6201H13.5C13.225 11.6201 13 11.8451 13 12.1201C13 12.3951 13.225 12.6201 13.5 12.6201H15V14.1201C15 14.3951 15.225 14.6201 15.5 14.6201C15.775 14.6201 16 14.3951 16 14.1201V12.6201H17.5Z" fill="white"/>
</svg>
