<svg width="21" height="20" viewBox="0 0 21 20" fill="none" xmlns="http://www.w3.org/2000/svg">
<g clip-path="url(#clip0_304_2999)">
<g clip-path="url(#clip1_304_2999)">
<path d="M18.2944 18.2001C18.7504 18.2001 19.1104 18.0161 19.4784 17.7441L13.8384 11.8241C13.6544 11.9121 13.5664 12.0081 13.4784 12.0961C13.0224 12.4641 12.7504 12.6401 12.4784 12.8241C12.2064 13.0081 11.8384 13.1921 11.3904 13.3681C10.9344 13.5521 10.5744 13.6401 10.1184 13.6401C9.75837 13.6401 9.30237 13.5521 8.84637 13.3681C8.39037 13.1841 8.03037 13.0001 7.75837 12.8241C7.48637 12.6481 7.11837 12.3681 6.75837 12.0961C6.67037 12.0081 6.48637 11.9121 6.39837 11.8241L0.750366 17.7441C1.02237 18.0161 1.47837 18.2001 1.93437 18.2001H18.2944Z" fill="#00323F"/>
<path d="M1.19835 8.08801C0.838352 7.81601 0.470352 7.44801 0.110352 7.08801V16.112L5.11035 10.92C4.11035 10.184 2.83835 9.17601 1.19835 8.08801Z" fill="#00323F"/>
<path d="M19.0224 8.08801C17.4784 9.18401 16.2064 10.096 15.1104 10.824L20.1104 16.016V7.08801C19.7504 7.44801 19.3824 7.81601 19.0224 8.08801Z" fill="#00323F"/>
<path d="M18.2944 1.80005H1.92635C1.28635 1.80005 0.838352 1.98405 0.566352 2.44005C0.294352 2.80005 0.110352 3.35205 0.110352 3.89605C0.110352 4.35205 0.294352 4.89605 0.750352 5.44805C1.20635 5.99205 1.56635 6.44805 2.02235 6.81605C2.29435 7.00005 3.02235 7.54405 4.29435 8.45605C5.02235 8.91205 5.56635 9.36805 6.11035 9.72805C6.56635 10 6.92635 10.368 7.19835 10.552C7.19835 10.552 7.28635 10.64 7.38235 10.64L7.65435 10.912C7.92635 11.096 8.11035 11.28 8.29435 11.368C8.47835 11.456 8.65435 11.64 8.83835 11.736C9.02235 11.92 9.29435 12.008 9.47835 12.008C9.66235 12.096 9.83835 12.096 10.0224 12.096C10.2064 12.096 10.3824 12.096 10.5664 12.008C10.7504 11.92 11.0224 11.824 11.2064 11.736C11.3904 11.552 11.6624 11.464 11.7504 11.368C11.9344 11.28 12.1104 11.096 12.3904 10.912C12.4784 10.824 12.5744 10.728 12.6624 10.64C12.7504 10.552 12.7504 10.552 12.8464 10.552C13.1184 10.368 13.4864 10.096 13.9344 9.72805C14.8464 9.08805 16.2064 8.08805 18.0224 6.72005C18.5664 6.35205 19.0224 5.80805 19.3824 5.26405C19.9264 4.89605 20.1104 4.26405 20.1104 3.62405C20.1104 3.08005 19.9264 2.71205 19.5664 2.35205C19.1984 1.98405 18.8384 1.80005 18.2944 1.80005Z" fill="#00323F"/>
</g>
</g>
<defs>
<clipPath id="clip0_304_2999">
<rect width="20" height="20" fill="white" transform="translate(0.110352)"/>
</clipPath>
<clipPath id="clip1_304_2999">
<rect width="20" height="20" fill="white" transform="translate(0.110352)"/>
</clipPath>
</defs>
</svg>
