<svg width="21" height="20" viewBox="0 0 21 20" fill="none" xmlns="http://www.w3.org/2000/svg">
<g clip-path="url(#clip0_304_2991)">
<g clip-path="url(#clip1_304_2991)">
<path d="M20.1104 12.16V19.552H15.8224V12.656C15.8224 10.92 15.1984 9.744 13.6544 9.744C12.4704 9.744 11.7664 10.544 11.4544 11.312C11.3424 11.584 11.3104 11.968 11.3104 12.36V19.56H7.02235C7.02235 19.56 7.07835 7.872 7.02235 6.664H11.3104V8.488C11.3024 8.504 11.2944 8.52 11.2784 8.528H11.3104V8.488C11.8784 7.608 12.8944 6.36 15.1744 6.36C17.9984 6.36 20.1104 8.2 20.1104 12.16ZM2.53435 0.447998C1.07035 0.447998 0.110352 1.408 0.110352 2.672C0.110352 3.912 1.03835 4.904 2.47835 4.904H2.51035C4.00635 4.904 4.93435 3.912 4.93435 2.672C4.90235 1.408 4.00635 0.447998 2.53435 0.447998ZM0.366352 19.552H4.65435V6.664H0.366352V19.552Z" fill="#00323F"/>
</g>
</g>
<defs>
<clipPath id="clip0_304_2991">
<rect width="20" height="20" fill="white" transform="translate(0.110352)"/>
</clipPath>
<clipPath id="clip1_304_2991">
<rect width="20" height="20" fill="white" transform="translate(0.110352)"/>
</clipPath>
</defs>
</svg>
