<svg width="21" height="20" viewBox="0 0 21 20" fill="none" xmlns="http://www.w3.org/2000/svg">
<g clip-path="url(#clip0_304_2996)">
<g clip-path="url(#clip1_304_2996)">
<path d="M18.7744 4.984C17.8784 3.448 16.6704 2.24 15.1344 1.344C13.5984 0.448 11.9264 0 10.1104 0C8.29435 0 6.62235 0.448 5.09435 1.344C3.55835 2.232 2.34235 3.448 1.45435 4.984C0.558352 6.512 0.110352 8.184 0.110352 10C0.110352 12.024 0.662352 13.856 1.76635 15.504C2.87035 17.152 4.31035 18.376 6.10235 19.16C6.07035 18.232 6.12635 17.464 6.27035 16.856L7.55835 11.416C7.34235 10.992 7.23035 10.464 7.23035 9.824C7.23035 9.088 7.41435 8.472 7.79035 7.976C8.16635 7.48 8.62235 7.232 9.15835 7.232C9.59035 7.232 9.92635 7.376 10.1584 7.664C10.3904 7.952 10.5104 8.312 10.5104 8.744C10.5104 9.016 10.4624 9.344 10.3584 9.728C10.2624 10.112 10.1264 10.56 9.96635 11.072C9.80635 11.576 9.69435 11.984 9.62235 12.288C9.50235 12.816 9.59835 13.272 9.91835 13.648C10.2384 14.024 10.6624 14.216 11.1984 14.216C12.1264 14.216 12.8864 13.696 13.4864 12.664C14.0784 11.632 14.3744 10.376 14.3744 8.904C14.3744 7.768 14.0064 6.84 13.2704 6.128C12.5344 5.416 11.5184 5.064 10.2064 5.064C8.74235 5.064 7.55035 5.536 6.64635 6.48C5.74235 7.424 5.28635 8.552 5.28635 9.856C5.28635 10.64 5.51035 11.296 5.95035 11.824C6.09435 12 6.14235 12.184 6.09435 12.384C6.07835 12.44 6.03835 12.568 5.99035 12.776C5.94235 12.984 5.90235 13.12 5.88635 13.176C5.81435 13.456 5.65435 13.544 5.39035 13.44C4.71835 13.16 4.21435 12.68 3.87035 11.992C3.52635 11.304 3.35035 10.512 3.35035 9.608C3.35035 9.024 3.44635 8.448 3.63035 7.864C3.82235 7.28 4.11035 6.72 4.50235 6.176C4.89435 5.632 5.37435 5.152 5.91835 4.736C6.47035 4.32 7.14235 3.984 7.92635 3.736C8.71835 3.488 9.56635 3.36 10.4784 3.36C11.7104 3.36 12.8144 3.632 13.7984 4.184C14.7824 4.728 15.5264 5.44 16.0464 6.304C16.5664 7.176 16.8224 8.104 16.8224 9.088C16.8224 10.392 16.5984 11.56 16.1424 12.6C15.6944 13.64 15.0544 14.456 14.2304 15.056C13.4064 15.648 12.4704 15.952 11.4144 15.952C10.8864 15.952 10.3904 15.832 9.92635 15.584C9.47035 15.336 9.15035 15.04 8.97435 14.704C8.58235 16.24 8.35035 17.16 8.27035 17.448C8.10235 18.064 7.76635 18.776 7.25435 19.584C8.18235 19.864 9.12635 20 10.0944 20C11.9104 20 13.5824 19.552 15.1104 18.656C16.6464 17.76 17.8544 16.552 18.7504 15.016C19.6464 13.48 20.0944 11.808 20.0944 10C20.1104 8.184 19.6624 6.512 18.7744 4.984Z" fill="#00323F"/>
</g>
</g>
<defs>
<clipPath id="clip0_304_2996">
<rect width="20" height="20" fill="white" transform="translate(0.110352)"/>
</clipPath>
<clipPath id="clip1_304_2996">
<rect width="20" height="20" fill="white" transform="translate(0.110352)"/>
</clipPath>
</defs>
</svg>
