<svg width="21" height="20" viewBox="0 0 21 20" fill="none" xmlns="http://www.w3.org/2000/svg">
<g clip-path="url(#clip0_304_2988)">
<g clip-path="url(#clip1_304_2988)">
<path d="M20.1104 3.8C19.3664 4.12801 18.5744 4.344 17.7504 4.448C18.5984 3.944 19.2464 3.144 19.5504 2.184C18.7584 2.656 17.8864 2.992 16.9504 3.17601C16.1984 2.376 15.1264 1.88 13.9584 1.88C11.6864 1.88 9.86241 3.72001 9.86241 5.98401C9.86241 6.31201 9.88641 6.62401 9.95841 6.92001C6.54241 6.74401 3.52641 5.112 1.50241 2.624C1.15041 3.24 0.942408 3.94401 0.942408 4.69601C0.942408 6.12001 1.67041 7.37601 2.76641 8.10401C2.11041 8.08801 1.46241 7.90401 0.910408 7.60001V7.64801C0.910408 9.64001 2.33441 11.296 4.19841 11.68C3.86241 11.768 3.50241 11.816 3.12641 11.816C2.86241 11.816 2.59841 11.8 2.35041 11.744C2.87841 13.368 4.39041 14.56 6.18241 14.6C4.79041 15.688 3.01441 16.352 1.10241 16.352C0.766408 16.352 0.446408 16.336 0.118408 16.296C1.93441 17.464 4.08641 18.136 6.40641 18.136C13.9504 18.136 18.0784 11.888 18.0784 6.47201C18.0784 6.28801 18.0704 6.11201 18.0624 5.94401C18.8704 5.35201 19.5504 4.632 20.1104 3.8Z" fill="#00323F"/>
</g>
</g>
<defs>
<clipPath id="clip0_304_2988">
<rect width="20" height="20" fill="white" transform="translate(0.110352)"/>
</clipPath>
<clipPath id="clip1_304_2988">
<rect width="20" height="20" fill="white" transform="translate(0.110352)"/>
</clipPath>
</defs>
</svg>
