<svg width="21" height="20" viewBox="0 0 21 20" fill="none" xmlns="http://www.w3.org/2000/svg">
<g clip-path="url(#clip0_304_2980)">
<g clip-path="url(#clip1_304_2980)">
<path d="M10.1104 0C4.59035 0 0.110352 4.488 0.110352 10C0.110352 12.184 0.814351 14.216 2.01435 15.864L0.766352 19.576L4.60635 18.344C6.19035 19.392 8.07835 20 10.1104 20C15.6224 20 20.1104 15.512 20.1104 10C20.1104 4.488 15.6304 0 10.1104 0ZM15.9344 14.12C15.6944 14.8 14.7344 15.368 13.9744 15.528C13.4544 15.64 12.7664 15.728 10.4704 14.776C7.53435 13.56 5.63835 10.576 5.49435 10.376C5.35035 10.184 4.31035 8.792 4.31035 7.36C4.31035 5.928 5.03835 5.224 5.33435 4.928C5.57435 4.68 5.97435 4.568 6.35835 4.568C6.47835 4.568 6.59035 4.576 6.69435 4.576C6.99035 4.592 7.13435 4.608 7.32635 5.072C7.56635 5.656 8.15835 7.088 8.22235 7.232C8.29435 7.376 8.36635 7.576 8.26235 7.776C8.16635 7.976 8.08635 8.064 7.94235 8.232C7.79835 8.4 7.65435 8.528 7.51035 8.712C7.37435 8.872 7.22235 9.04 7.39035 9.336C7.55835 9.624 8.15035 10.584 9.01435 11.352C10.1344 12.344 11.0384 12.664 11.3584 12.8C11.5984 12.904 11.8864 12.88 12.0624 12.688C12.2864 12.448 12.5664 12.048 12.8464 11.656C13.0464 11.376 13.3024 11.336 13.5664 11.44C13.8384 11.536 15.2624 12.24 15.5584 12.384C15.8544 12.528 16.0464 12.6 16.1184 12.728C16.1744 12.856 16.1744 13.44 15.9344 14.12Z" fill="#00323F"/>
</g>
</g>
<defs>
<clipPath id="clip0_304_2980">
<rect width="20" height="20" fill="white" transform="translate(0.110352)"/>
</clipPath>
<clipPath id="clip1_304_2980">
<rect width="20" height="20" fill="white" transform="translate(0.110352)"/>
</clipPath>
</defs>
</svg>
