<svg width="36" height="36" viewBox="0 0 36 36" fill="none" xmlns="http://www.w3.org/2000/svg">
<rect opacity="0.1" width="36" height="36" rx="3" fill="#111727"/>
<path d="M17.125 14.6055C18.8477 14.6055 20.2695 16.0273 20.2695 17.75C20.2695 19.5 18.8477 20.8945 17.125 20.8945C15.375 20.8945 13.9805 19.5 13.9805 17.75C13.9805 16.0273 15.375 14.6055 17.125 14.6055ZM17.125 19.8008C18.2461 19.8008 19.1484 18.8984 19.1484 17.75C19.1484 16.6289 18.2461 15.7266 17.125 15.7266C15.9766 15.7266 15.0742 16.6289 15.0742 17.75C15.0742 18.8984 16.0039 19.8008 17.125 19.8008ZM21.1172 14.4961C21.1172 14.9062 20.7891 15.2344 20.3789 15.2344C19.9688 15.2344 19.6406 14.9062 19.6406 14.4961C19.6406 14.0859 19.9688 13.7578 20.3789 13.7578C20.7891 13.7578 21.1172 14.0859 21.1172 14.4961ZM23.1953 15.2344C23.25 16.2461 23.25 19.2812 23.1953 20.293C23.1406 21.2773 22.9219 22.125 22.2109 22.8633C21.5 23.5742 20.625 23.793 19.6406 23.8477C18.6289 23.9023 15.5938 23.9023 14.582 23.8477C13.5977 23.793 12.75 23.5742 12.0117 22.8633C11.3008 22.125 11.082 21.2773 11.0273 20.293C10.9727 19.2812 10.9727 16.2461 11.0273 15.2344C11.082 14.25 11.3008 13.375 12.0117 12.6641C12.75 11.9531 13.5977 11.7344 14.582 11.6797C15.5938 11.625 18.6289 11.625 19.6406 11.6797C20.625 11.7344 21.5 11.9531 22.2109 12.6641C22.9219 13.375 23.1406 14.25 23.1953 15.2344ZM21.8828 21.3594C22.2109 20.5664 22.1289 18.6523 22.1289 17.75C22.1289 16.875 22.2109 14.9609 21.8828 14.1406C21.6641 13.6211 21.2539 13.1836 20.7344 12.9922C19.9141 12.6641 18 12.7461 17.125 12.7461C16.2227 12.7461 14.3086 12.6641 13.5156 12.9922C12.9688 13.2109 12.5586 13.6211 12.3398 14.1406C12.0117 14.9609 12.0938 16.875 12.0938 17.75C12.0938 18.6523 12.0117 20.5664 12.3398 21.3594C12.5586 21.9062 12.9688 22.3164 13.5156 22.5352C14.3086 22.8633 16.2227 22.7812 17.125 22.7812C18 22.7812 19.9141 22.8633 20.7344 22.5352C21.2539 22.3164 21.6914 21.9062 21.8828 21.3594Z" fill="#111727"/>
</svg>
