<svg width="18" height="18" viewBox="0 0 18 18" fill="none" xmlns="http://www.w3.org/2000/svg">
<g clip-path="url(#clip0_304_2207)">
<path d="M9.00018 17.1815C13.5189 17.1815 17.182 13.5184 17.182 8.99969C17.182 4.481 13.5189 0.817871 9.00018 0.817871C4.48148 0.817871 0.818359 4.481 0.818359 8.99969C0.818359 10.1279 1.04669 11.2027 1.45967 12.1805C1.68791 12.7209 1.80202 12.9911 1.81616 13.1953C1.83029 13.3995 1.77018 13.6241 1.64997 14.0734L0.818359 17.1815L3.92645 16.3499C4.37572 16.2297 4.60036 16.1696 4.80456 16.1837C5.00876 16.1978 5.27897 16.312 5.81937 16.5402C6.79718 16.9532 7.87201 17.1815 9.00018 17.1815Z" stroke="#111727" stroke-linejoin="round"/>
<path d="M6.20858 9.30833L6.92116 8.42331C7.22149 8.0503 7.59277 7.70302 7.62183 7.20636C7.62917 7.08092 7.54091 6.5177 7.36438 5.39131C7.295 4.94863 6.8817 4.90869 6.52372 4.90869C6.05721 4.90869 5.82395 4.90869 5.59232 5.01449C5.29957 5.14822 4.99901 5.52422 4.93305 5.83923C4.88086 6.08848 4.91964 6.26022 4.9972 6.60371C5.32664 8.06263 6.09948 9.50348 7.29785 10.7018C8.49621 11.9002 9.93706 12.6731 11.396 13.0025C11.7395 13.08 11.9112 13.1188 12.1605 13.0666C12.4755 13.0007 12.8515 12.7001 12.9852 12.4074C13.091 12.1757 13.091 11.9425 13.091 11.476C13.091 11.118 13.0511 10.7047 12.6084 10.6353C11.482 10.4588 10.9188 10.3705 10.7933 10.3779C10.2967 10.4069 9.94939 10.7782 9.57638 11.0785L8.69136 11.7911" stroke="#111727"/>
</g>
<defs>
<clipPath id="clip0_304_2207">
<rect width="18" height="18" fill="white"/>
</clipPath>
</defs>
</svg>
