<svg width="18" height="18" viewBox="0 0 18 18" fill="none" xmlns="http://www.w3.org/2000/svg">
<path d="M13.6666 17.1667C12.7383 17.1667 11.8481 16.798 11.1917 16.1416C10.5353 15.4852 10.1666 14.595 10.1666 13.6667C10.1666 12.7385 10.5353 11.8482 11.1917 11.1918C11.8481 10.5355 12.7383 10.1667 13.6666 10.1667C14.5948 10.1667 15.4851 10.5355 16.1415 11.1918C16.7978 11.8482 17.1666 12.7385 17.1666 13.6667C17.1666 14.595 16.7978 15.4852 16.1415 16.1416C15.4851 16.798 14.5948 17.1667 13.6666 17.1667ZM4.33325 17.1667C3.40499 17.1667 2.51476 16.798 1.85838 16.1416C1.202 15.4852 0.833252 14.595 0.833252 13.6667C0.833252 12.7385 1.202 11.8482 1.85838 11.1918C2.51476 10.5355 3.40499 10.1667 4.33325 10.1667C5.26151 10.1667 6.15175 10.5355 6.80813 11.1918C7.4645 11.8482 7.83325 12.7385 7.83325 13.6667C7.83325 14.595 7.4645 15.4852 6.80813 16.1416C6.15175 16.798 5.26151 17.1667 4.33325 17.1667ZM13.6666 7.83337C12.7383 7.83337 11.8481 7.46463 11.1917 6.80825C10.5353 6.15187 10.1666 5.26163 10.1666 4.33337C10.1666 3.40512 10.5353 2.51488 11.1917 1.8585C11.8481 1.20212 12.7383 0.833374 13.6666 0.833374C14.5948 0.833374 15.4851 1.20212 16.1415 1.8585C16.7978 2.51488 17.1666 3.40512 17.1666 4.33337C17.1666 5.26163 16.7978 6.15187 16.1415 6.80825C15.4851 7.46463 14.5948 7.83337 13.6666 7.83337ZM4.33325 7.83337C3.40499 7.83337 2.51476 7.46463 1.85838 6.80825C1.202 6.15187 0.833252 5.26163 0.833252 4.33337C0.833252 3.40512 1.202 2.51488 1.85838 1.8585C2.51476 1.20212 3.40499 0.833374 4.33325 0.833374C5.26151 0.833374 6.15175 1.20212 6.80813 1.8585C7.4645 2.51488 7.83325 3.40512 7.83325 4.33337C7.83325 5.26163 7.4645 6.15187 6.80813 6.80825C6.15175 7.46463 5.26151 7.83337 4.33325 7.83337Z" fill="#111727"/>
</svg>
