<svg width="16" height="16" viewBox="0 0 16 16" fill="none" xmlns="http://www.w3.org/2000/svg">
<path fill-rule="evenodd" clip-rule="evenodd" d="M8.37501 3.33325C8.37501 3.12615 8.20711 2.95825 8.00001 2.95825C7.7929 2.95825 7.62501 3.12615 7.62501 3.33325V7.62494H3.33334C3.12624 7.62494 2.95834 7.79283 2.95834 7.99994C2.95834 8.20705 3.12624 8.37494 3.33334 8.37494H7.62501V12.6666C7.62501 12.8737 7.7929 13.0416 8.00001 13.0416C8.20711 13.0416 8.37501 12.8737 8.37501 12.6666V8.37494H12.6667C12.8738 8.37494 13.0417 8.20705 13.0417 7.99994C13.0417 7.79283 12.8738 7.62494 12.6667 7.62494H8.37501V3.33325Z" fill="#121212"/>
</svg>
