<svg width="128" height="24" viewBox="0 0 128 24" fill="none" xmlns="http://www.w3.org/2000/svg">
<path d="M11.2827 3.45332C11.5131 2.98638 11.6284 2.75291 11.7848 2.67831C11.9209 2.61341 12.0791 2.61341 12.2152 2.67831C12.3717 2.75291 12.4869 2.98638 12.7174 3.45332L14.9041 7.88328C14.9721 8.02113 15.0061 8.09006 15.0558 8.14358C15.0999 8.19096 15.1527 8.22935 15.2113 8.25662C15.2776 8.28742 15.3536 8.29854 15.5057 8.32077L20.397 9.03571C20.9121 9.11099 21.1696 9.14863 21.2888 9.27444C21.3925 9.38389 21.4412 9.5343 21.4215 9.68377C21.3988 9.85558 21.2124 10.0372 20.8395 10.4004L17.3014 13.8464C17.1912 13.9538 17.136 14.0076 17.1004 14.0715C17.0689 14.128 17.0487 14.1902 17.0409 14.2545C17.0321 14.3271 17.0451 14.403 17.0711 14.5547L17.906 19.4221C17.994 19.9355 18.038 20.1922 17.9553 20.3445C17.8833 20.477 17.7554 20.57 17.6071 20.5975C17.4366 20.6291 17.2061 20.5078 16.7451 20.2654L12.3724 17.9658C12.2361 17.8942 12.168 17.8584 12.0962 17.8443C12.0327 17.8318 11.9673 17.8318 11.9038 17.8443C11.832 17.8584 11.7639 17.8942 11.6277 17.9658L7.25492 20.2654C6.79392 20.5078 6.56341 20.6291 6.39297 20.5975C6.24468 20.57 6.11672 20.477 6.04474 20.3445C5.962 20.1922 6.00603 19.9355 6.09407 19.4221L6.92889 14.5547C6.95491 14.403 6.96793 14.3271 6.95912 14.2545C6.95132 14.1902 6.93111 14.128 6.89961 14.0715C6.86402 14.0076 6.80888 13.9538 6.69859 13.8464L3.16056 10.4004C2.78766 10.0372 2.60121 9.85558 2.57853 9.68377C2.55879 9.5343 2.60755 9.38389 2.71125 9.27444C2.83044 9.14863 3.08797 9.11099 3.60304 9.03571L8.49431 8.32077C8.64642 8.29854 8.72248 8.28742 8.78872 8.25662C8.84736 8.22935 8.90016 8.19096 8.94419 8.14358C8.99391 8.09006 9.02793 8.02113 9.09597 7.88328L11.2827 3.45332Z" fill="#C67416"/>
<path d="M37.2827 3.45332C37.5131 2.98638 37.6284 2.75291 37.7848 2.67831C37.9209 2.61341 38.0791 2.61341 38.2152 2.67831C38.3717 2.75291 38.4869 2.98638 38.7174 3.45332L40.9041 7.88328C40.9721 8.02113 41.0061 8.09006 41.0558 8.14358C41.0999 8.19096 41.1527 8.22935 41.2113 8.25662C41.2776 8.28742 41.3536 8.29854 41.5057 8.32077L46.397 9.03571C46.9121 9.11099 47.1696 9.14863 47.2888 9.27444C47.3925 9.38389 47.4412 9.5343 47.4215 9.68377C47.3988 9.85558 47.2124 10.0372 46.8395 10.4004L43.3014 13.8464C43.1912 13.9538 43.136 14.0076 43.1004 14.0715C43.0689 14.128 43.0487 14.1902 43.0409 14.2545C43.0321 14.3271 43.0451 14.403 43.0711 14.5547L43.906 19.4221C43.994 19.9355 44.038 20.1922 43.9553 20.3445C43.8833 20.477 43.7554 20.57 43.6071 20.5975C43.4366 20.6291 43.2061 20.5078 42.7451 20.2654L38.3724 17.9658C38.2361 17.8942 38.168 17.8584 38.0962 17.8443C38.0327 17.8318 37.9673 17.8318 37.9038 17.8443C37.832 17.8584 37.7639 17.8942 37.6277 17.9658L33.2549 20.2654C32.7939 20.5078 32.5634 20.6291 32.393 20.5975C32.2447 20.57 32.1167 20.477 32.0447 20.3445C31.962 20.1922 32.006 19.9355 32.0941 19.4221L32.9289 14.5547C32.9549 14.403 32.9679 14.3271 32.9591 14.2545C32.9513 14.1902 32.9311 14.128 32.8996 14.0715C32.864 14.0076 32.8089 13.9538 32.6986 13.8464L29.1606 10.4004C28.7877 10.0372 28.6012 9.85558 28.5785 9.68377C28.5588 9.5343 28.6076 9.38389 28.7113 9.27444C28.8304 9.14863 29.088 9.11099 29.603 9.03571L34.4943 8.32077C34.6464 8.29854 34.7225 8.28742 34.7887 8.25662C34.8474 8.22935 34.9002 8.19096 34.9442 8.14358C34.9939 8.09006 35.0279 8.02113 35.096 7.88328L37.2827 3.45332Z" fill="#C67416"/>
<path d="M63.2827 3.45332C63.5131 2.98638 63.6284 2.75291 63.7848 2.67831C63.9209 2.61341 64.0791 2.61341 64.2152 2.67831C64.3717 2.75291 64.4869 2.98638 64.7174 3.45332L66.9041 7.88328C66.9721 8.02113 67.0061 8.09006 67.0558 8.14358C67.0999 8.19096 67.1527 8.22935 67.2113 8.25662C67.2776 8.28742 67.3536 8.29854 67.5057 8.32077L72.397 9.03571C72.9121 9.11099 73.1696 9.14863 73.2888 9.27444C73.3925 9.38389 73.4412 9.5343 73.4215 9.68377C73.3988 9.85558 73.2124 10.0372 72.8395 10.4004L69.3014 13.8464C69.1912 13.9538 69.136 14.0076 69.1004 14.0715C69.0689 14.128 69.0487 14.1902 69.0409 14.2545C69.0321 14.3271 69.0451 14.403 69.0711 14.5547L69.906 19.4221C69.994 19.9355 70.038 20.1922 69.9553 20.3445C69.8833 20.477 69.7554 20.57 69.6071 20.5975C69.4366 20.6291 69.2061 20.5078 68.7451 20.2654L64.3724 17.9658C64.2361 17.8942 64.168 17.8584 64.0962 17.8443C64.0327 17.8318 63.9673 17.8318 63.9038 17.8443C63.832 17.8584 63.7639 17.8942 63.6277 17.9658L59.2549 20.2654C58.7939 20.5078 58.5634 20.6291 58.393 20.5975C58.2447 20.57 58.1167 20.477 58.0447 20.3445C57.962 20.1922 58.006 19.9355 58.0941 19.4221L58.9289 14.5547C58.9549 14.403 58.9679 14.3271 58.9591 14.2545C58.9513 14.1902 58.9311 14.128 58.8996 14.0715C58.864 14.0076 58.8089 13.9538 58.6986 13.8464L55.1606 10.4004C54.7877 10.0372 54.6012 9.85558 54.5785 9.68377C54.5588 9.5343 54.6076 9.38389 54.7113 9.27444C54.8304 9.14863 55.088 9.11099 55.603 9.03571L60.4943 8.32077C60.6464 8.29854 60.7225 8.28742 60.7887 8.25662C60.8474 8.22935 60.9002 8.19096 60.9442 8.14358C60.9939 8.09006 61.0279 8.02113 61.096 7.88328L63.2827 3.45332Z" fill="#C67416"/>
<path d="M89.2827 3.45332C89.5131 2.98638 89.6284 2.75291 89.7848 2.67831C89.9209 2.61341 90.0791 2.61341 90.2152 2.67831C90.3717 2.75291 90.4869 2.98638 90.7174 3.45332L92.9041 7.88328C92.9721 8.02113 93.0061 8.09006 93.0558 8.14358C93.0999 8.19096 93.1527 8.22935 93.2113 8.25662C93.2776 8.28742 93.3536 8.29854 93.5057 8.32077L98.397 9.03571C98.9121 9.11099 99.1696 9.14863 99.2888 9.27444C99.3925 9.38389 99.4412 9.5343 99.4215 9.68377C99.3988 9.85558 99.2124 10.0372 98.8395 10.4004L95.3014 13.8464C95.1912 13.9538 95.136 14.0076 95.1004 14.0715C95.0689 14.128 95.0487 14.1902 95.0409 14.2545C95.0321 14.3271 95.0451 14.403 95.0711 14.5547L95.906 19.4221C95.994 19.9355 96.038 20.1922 95.9553 20.3445C95.8833 20.477 95.7554 20.57 95.6071 20.5975C95.4366 20.6291 95.2061 20.5078 94.7451 20.2654L90.3724 17.9658C90.2361 17.8942 90.168 17.8584 90.0962 17.8443C90.0327 17.8318 89.9673 17.8318 89.9038 17.8443C89.832 17.8584 89.7639 17.8942 89.6277 17.9658L85.2549 20.2654C84.7939 20.5078 84.5634 20.6291 84.393 20.5975C84.2447 20.57 84.1167 20.477 84.0447 20.3445C83.962 20.1922 84.006 19.9355 84.0941 19.4221L84.9289 14.5547C84.9549 14.403 84.9679 14.3271 84.9591 14.2545C84.9513 14.1902 84.9311 14.128 84.8996 14.0715C84.864 14.0076 84.8089 13.9538 84.6986 13.8464L81.1606 10.4004C80.7877 10.0372 80.6012 9.85558 80.5785 9.68377C80.5588 9.5343 80.6076 9.38389 80.7113 9.27444C80.8304 9.14863 81.088 9.11099 81.603 9.03571L86.4943 8.32077C86.6464 8.29854 86.7225 8.28742 86.7887 8.25662C86.8474 8.22935 86.9002 8.19096 86.9442 8.14358C86.9939 8.09006 87.0279 8.02113 87.096 7.88328L89.2827 3.45332Z" fill="#C67416"/>
<path d="M115.283 3.45332C115.513 2.98638 115.628 2.75291 115.785 2.67831C115.921 2.61341 116.079 2.61341 116.215 2.67831C116.372 2.75291 116.487 2.98638 116.717 3.45332L118.904 7.88328C118.972 8.02113 119.006 8.09006 119.056 8.14358C119.1 8.19096 119.153 8.22935 119.211 8.25662C119.278 8.28742 119.354 8.29854 119.506 8.32077L124.397 9.03571C124.912 9.11099 125.17 9.14863 125.289 9.27444C125.392 9.38389 125.441 9.5343 125.422 9.68377C125.399 9.85558 125.212 10.0372 124.839 10.4004L121.301 13.8464C121.191 13.9538 121.136 14.0076 121.1 14.0715C121.069 14.128 121.049 14.1902 121.041 14.2545C121.032 14.3271 121.045 14.403 121.071 14.5547L121.906 19.4221C121.994 19.9355 122.038 20.1922 121.955 20.3445C121.883 20.477 121.755 20.57 121.607 20.5975C121.437 20.6291 121.206 20.5078 120.745 20.2654L116.372 17.9658C116.236 17.8942 116.168 17.8584 116.096 17.8443C116.033 17.8318 115.967 17.8318 115.904 17.8443C115.832 17.8584 115.764 17.8942 115.628 17.9658L111.255 20.2654C110.794 20.5078 110.563 20.6291 110.393 20.5975C110.245 20.57 110.117 20.477 110.045 20.3445C109.962 20.1922 110.006 19.9355 110.094 19.4221L110.929 14.5547C110.955 14.403 110.968 14.3271 110.959 14.2545C110.951 14.1902 110.931 14.128 110.9 14.0715C110.864 14.0076 110.809 13.9538 110.699 13.8464L107.161 10.4004C106.788 10.0372 106.601 9.85558 106.579 9.68377C106.559 9.5343 106.608 9.38389 106.711 9.27444C106.83 9.14863 107.088 9.11099 107.603 9.03571L112.494 8.32077C112.646 8.29854 112.722 8.28742 112.789 8.25662C112.847 8.22935 112.9 8.19096 112.944 8.14358C112.994 8.09006 113.028 8.02113 113.096 7.88328L115.283 3.45332Z" fill="#C67416"/>
</svg>
