<svg width="66" height="22" viewBox="0 0 66 22" fill="none" xmlns="http://www.w3.org/2000/svg">
<path d="M9 13.5L9 3.5M9 13.5C8.29977 13.5 6.99153 11.5057 6.5 11M9 13.5C9.70023 13.5 11.0085 11.5057 11.5 11" stroke="#00B69B" stroke-width="1.5" stroke-linecap="round" stroke-linejoin="round"/>
<path d="M17 15.5C17 17.982 16.482 18.5 14 18.5H4C1.518 18.5 1 17.982 1 15.5" stroke="#00B69B" stroke-width="1.5" stroke-linecap="round" stroke-linejoin="round"/>
<path d="M24.134 9.204H25.436V15H24.134V9.204ZM24.036 7.104C24.036 6.89867 24.1153 6.726 24.274 6.586C24.442 6.446 24.624 6.376 24.82 6.376C25.016 6.376 25.1887 6.446 25.338 6.586C25.4967 6.726 25.576 6.89867 25.576 7.104C25.576 7.31867 25.4967 7.496 25.338 7.636C25.1887 7.76667 25.016 7.832 24.82 7.832C24.624 7.832 24.442 7.762 24.274 7.622C24.1153 7.482 24.036 7.30933 24.036 7.104ZM28.8507 9.204L28.9627 10.618L28.9067 10.394C29.0934 9.96467 29.3967 9.624 29.8167 9.372C30.2367 9.11067 30.722 8.98 31.2727 8.98C31.8234 8.98 32.2714 9.14333 32.6167 9.47C32.9714 9.78733 33.1534 10.2027 33.1627 10.716V15H31.8467V11.178C31.8374 10.8607 31.744 10.604 31.5667 10.408C31.3987 10.2027 31.1327 10.1 30.7687 10.1C30.4327 10.1 30.1294 10.1933 29.8587 10.38C29.588 10.5667 29.3734 10.8233 29.2147 11.15C29.0654 11.4767 28.9907 11.8547 28.9907 12.284V15H27.6887V9.204H28.8507ZM37.5739 15.168L34.3539 9.204H35.8939L38.0779 13.81L37.2799 13.782L39.2819 9.204H40.7379L37.6439 15.168H37.5739ZM41.4991 12.046C41.4991 11.4673 41.6345 10.9447 41.9051 10.478C42.1851 10.0113 42.5678 9.64267 43.0531 9.372C43.5385 9.10133 44.0891 8.966 44.7051 8.966C45.3398 8.966 45.8951 9.10133 46.3711 9.372C46.8471 9.64267 47.2158 10.0113 47.4771 10.478C47.7385 10.9447 47.8691 11.4673 47.8691 12.046C47.8691 12.6247 47.7385 13.152 47.4771 13.628C47.2158 14.0947 46.8425 14.4633 46.3571 14.734C45.8811 15.0047 45.3258 15.14 44.6911 15.14C44.0751 15.14 43.5245 15.014 43.0391 14.762C42.5631 14.5007 42.1851 14.1413 41.9051 13.684C41.6345 13.2173 41.4991 12.6713 41.4991 12.046ZM42.8011 12.06C42.8011 12.4333 42.8851 12.774 43.0531 13.082C43.2211 13.3807 43.4451 13.6187 43.7251 13.796C44.0145 13.9733 44.3318 14.062 44.6771 14.062C45.0411 14.062 45.3631 13.9733 45.6431 13.796C45.9325 13.6187 46.1565 13.3807 46.3151 13.082C46.4738 12.774 46.5531 12.4333 46.5531 12.06C46.5531 11.6867 46.4738 11.3507 46.3151 11.052C46.1565 10.744 45.9325 10.5013 45.6431 10.324C45.3631 10.1373 45.0411 10.044 44.6771 10.044C44.3225 10.044 44.0005 10.1373 43.7111 10.324C43.4311 10.5107 43.2071 10.758 43.0391 11.066C42.8805 11.3647 42.8011 11.696 42.8011 12.06ZM49.632 9.204H50.934V15H49.632V9.204ZM49.534 7.104C49.534 6.89867 49.6134 6.726 49.772 6.586C49.94 6.446 50.122 6.376 50.318 6.376C50.514 6.376 50.6867 6.446 50.836 6.586C50.9947 6.726 51.074 6.89867 51.074 7.104C51.074 7.31867 50.9947 7.496 50.836 7.636C50.6867 7.76667 50.514 7.832 50.318 7.832C50.122 7.832 49.94 7.762 49.772 7.622C49.6134 7.482 49.534 7.30933 49.534 7.104ZM57.8907 14.468C57.6294 14.6733 57.3167 14.8367 56.9527 14.958C56.5887 15.0793 56.2247 15.14 55.8607 15.14C55.2261 15.14 54.6707 15.014 54.1947 14.762C53.7187 14.51 53.3454 14.16 53.0747 13.712C52.8134 13.2547 52.6827 12.718 52.6827 12.102C52.6827 11.486 52.8227 10.9493 53.1027 10.492C53.3921 10.0347 53.7654 9.68467 54.2227 9.442C54.6894 9.19 55.1887 9.064 55.7207 9.064C56.1874 9.064 56.6027 9.12933 56.9667 9.26C57.3401 9.39067 57.6574 9.568 57.9187 9.792L57.2747 10.632C57.1067 10.5013 56.9014 10.3847 56.6587 10.282C56.4161 10.1793 56.1407 10.128 55.8327 10.128C55.4967 10.128 55.1841 10.2167 54.8947 10.394C54.6147 10.562 54.3907 10.7953 54.2227 11.094C54.0641 11.3927 53.9847 11.7287 53.9847 12.102C53.9847 12.4567 54.0687 12.788 54.2367 13.096C54.4047 13.3947 54.6381 13.6327 54.9367 13.81C55.2354 13.978 55.5761 14.062 55.9587 14.062C56.2107 14.062 56.4394 14.0247 56.6447 13.95C56.8594 13.8753 57.0507 13.7727 57.2187 13.642L57.8907 14.468ZM62.2595 15.14C61.5968 15.14 61.0275 15.0093 60.5515 14.748C60.0755 14.4773 59.7068 14.1133 59.4455 13.656C59.1935 13.1893 59.0675 12.6573 59.0675 12.06C59.0675 11.4907 59.2122 10.9727 59.5015 10.506C59.7908 10.0393 60.1782 9.666 60.6635 9.386C61.1488 9.106 61.6902 8.966 62.2875 8.966C63.0528 8.966 63.6875 9.19 64.1915 9.638C64.6955 10.086 65.0362 10.702 65.2135 11.486L60.4395 13.166L60.1315 12.396L64.0515 10.968L63.7715 11.15C63.6595 10.842 63.4728 10.576 63.2115 10.352C62.9502 10.1187 62.6095 10.002 62.1895 10.002C61.8348 10.002 61.5175 10.0907 61.2375 10.268C60.9575 10.436 60.7382 10.6693 60.5795 10.968C60.4208 11.2667 60.3415 11.6073 60.3415 11.99C60.3415 12.3913 60.4255 12.746 60.5935 13.054C60.7615 13.3527 60.9902 13.5907 61.2795 13.768C61.5782 13.936 61.9142 14.02 62.2875 14.02C62.5395 14.02 62.7822 13.9733 63.0155 13.88C63.2582 13.7867 63.4822 13.6653 63.6875 13.516L64.2895 14.482C64.0002 14.678 63.6735 14.8367 63.3095 14.958C62.9548 15.0793 62.6048 15.14 62.2595 15.14Z" fill="#00B69B"/>
</svg>
