<svg width="30" height="30" viewBox="0 0 30 30" fill="none" xmlns="http://www.w3.org/2000/svg">
<rect x="0.75" y="0.75" width="28.5" height="28.5" rx="14.25" fill="#111727"/>
<rect x="0.75" y="0.75" width="28.5" height="28.5" rx="14.25" stroke="white" stroke-width="1.5"/>
<path d="M11.2507 10.7226C11.0975 10.9524 11.1596 11.2628 11.3893 11.416C11.6191 11.5692 11.9295 11.5071 12.0827 11.2774L11.2507 10.7226ZM12.6042 9.59373L13.0202 9.87108V9.87108L12.6042 9.59373ZM17.3958 9.59373L17.8119 9.31638L17.3958 9.59373ZM17.9173 11.2774C18.0705 11.5071 18.3809 11.5692 18.6107 11.416C18.8405 11.2628 18.9025 10.9524 18.7494 10.7226L17.9173 11.2774ZM16.5 16C16.5 16.8284 15.8284 17.5 15 17.5V18.5C16.3807 18.5 17.5 17.3807 17.5 16H16.5ZM15 17.5C14.1716 17.5 13.5 16.8284 13.5 16H12.5C12.5 17.3807 13.6193 18.5 15 18.5V17.5ZM13.5 16C13.5 15.1716 14.1716 14.5 15 14.5V13.5C13.6193 13.5 12.5 14.6193 12.5 16H13.5ZM15 14.5C15.8284 14.5 16.5 15.1716 16.5 16H17.5C17.5 14.6193 16.3807 13.5 15 13.5V14.5ZM12.0827 11.2774L13.0202 9.87108L12.1882 9.31638L11.2507 10.7226L12.0827 11.2774ZM13.7136 9.5H16.2864V8.5H13.7136V9.5ZM16.9798 9.87108L17.9173 11.2774L18.7494 10.7226L17.8119 9.31638L16.9798 9.87108ZM16.2864 9.5C16.5651 9.5 16.8253 9.63925 16.9798 9.87108L17.8119 9.31638C17.4718 8.80635 16.8994 8.5 16.2864 8.5V9.5ZM13.0202 9.87108C13.1748 9.63925 13.435 9.5 13.7136 9.5V8.5C13.1006 8.5 12.5282 8.80635 12.1882 9.31638L13.0202 9.87108ZM11 11.5H19V10.5H11V11.5ZM21.1667 13.6667V18.3333H22.1667V13.6667H21.1667ZM19 20.5H11V21.5H19V20.5ZM8.83334 18.3333V13.6667H7.83334V18.3333H8.83334ZM11 20.5C9.80339 20.5 8.83334 19.53 8.83334 18.3333H7.83334C7.83334 20.0822 9.25111 21.5 11 21.5V20.5ZM21.1667 18.3333C21.1667 19.53 20.1966 20.5 19 20.5V21.5C20.7489 21.5 22.1667 20.0822 22.1667 18.3333H21.1667ZM19 11.5C20.1966 11.5 21.1667 12.47 21.1667 13.6667H22.1667C22.1667 11.9178 20.7489 10.5 19 10.5V11.5ZM11 10.5C9.25111 10.5 7.83334 11.9178 7.83334 13.6667H8.83334C8.83334 12.47 9.80339 11.5 11 11.5V10.5Z" fill="#FEFEFE"/>
</svg>
