<svg width="30" height="30" viewBox="0 0 30 30" fill="none" xmlns="http://www.w3.org/2000/svg">
<rect x="0.75" y="0.75" width="28.5" height="28.5" rx="14.25" fill="#141718"/>
<rect x="0.75" y="0.75" width="28.5" height="28.5" rx="14.25" stroke="white" stroke-width="1.5"/>
<path d="M11.2506 10.7226C11.0974 10.9524 11.1595 11.2628 11.3892 11.416C11.619 11.5692 11.9294 11.5071 12.0826 11.2774L11.2506 10.7226ZM12.6041 9.59373L13.0201 9.87108V9.87108L12.6041 9.59373ZM17.3957 9.59373L17.8118 9.31638L17.3957 9.59373ZM17.9172 11.2774C18.0704 11.5071 18.3808 11.5692 18.6106 11.416C18.8404 11.2628 18.9025 10.9524 18.7493 10.7226L17.9172 11.2774ZM16.4999 16C16.4999 16.8284 15.8283 17.5 14.9999 17.5V18.5C16.3806 18.5 17.4999 17.3807 17.4999 16H16.4999ZM14.9999 17.5C14.1715 17.5 13.4999 16.8284 13.4999 16H12.4999C12.4999 17.3807 13.6192 18.5 14.9999 18.5V17.5ZM13.4999 16C13.4999 15.1716 14.1715 14.5 14.9999 14.5V13.5C13.6192 13.5 12.4999 14.6193 12.4999 16H13.4999ZM14.9999 14.5C15.8283 14.5 16.4999 15.1716 16.4999 16H17.4999C17.4999 14.6193 16.3806 13.5 14.9999 13.5V14.5ZM12.0826 11.2774L13.0201 9.87108L12.1881 9.31638L11.2506 10.7226L12.0826 11.2774ZM13.7135 9.5H16.2863V8.5H13.7135V9.5ZM16.9797 9.87108L17.9172 11.2774L18.7493 10.7226L17.8118 9.31638L16.9797 9.87108ZM16.2863 9.5C16.565 9.5 16.8252 9.63925 16.9797 9.87108L17.8118 9.31638C17.4717 8.80635 16.8993 8.5 16.2863 8.5V9.5ZM13.0201 9.87108C13.1747 9.63925 13.4349 9.5 13.7135 9.5V8.5C13.1005 8.5 12.5281 8.80635 12.1881 9.31638L13.0201 9.87108ZM10.9999 11.5H18.9999V10.5H10.9999V11.5ZM21.1666 13.6667V18.3333H22.1666V13.6667H21.1666ZM18.9999 20.5H10.9999V21.5H18.9999V20.5ZM8.83325 18.3333V13.6667H7.83325V18.3333H8.83325ZM10.9999 20.5C9.8033 20.5 8.83325 19.53 8.83325 18.3333H7.83325C7.83325 20.0822 9.25102 21.5 10.9999 21.5V20.5ZM21.1666 18.3333C21.1666 19.53 20.1965 20.5 18.9999 20.5V21.5C20.7488 21.5 22.1666 20.0822 22.1666 18.3333H21.1666ZM18.9999 11.5C20.1965 11.5 21.1666 12.47 21.1666 13.6667H22.1666C22.1666 11.9178 20.7488 10.5 18.9999 10.5V11.5ZM10.9999 10.5C9.25102 10.5 7.83325 11.9178 7.83325 13.6667H8.83325C8.83325 12.47 9.8033 11.5 10.9999 11.5V10.5Z" fill="#FEFEFE"/>
</svg>
