<svg width="26" height="25" viewBox="0 0 26 25" fill="none" xmlns="http://www.w3.org/2000/svg">
<path d="M25.375 12.25C25.375 19.012 19.6973 24.5 12.6875 24.5C5.67766 24.5 0 19.012 0 12.25C0 5.48187 5.67766 0 12.6875 0C19.6973 0 25.375 5.48187 25.375 12.25Z" fill="#283544"/>
<path d="M18.2907 9.77521C18.2214 9.81421 16.5733 10.6372 16.5733 12.4619C16.651 14.5428 18.6532 15.2726 18.6875 15.2726C18.6532 15.3116 18.3852 16.2667 17.5916 17.268C16.9617 18.1304 16.2626 19 15.201 19C14.1911 19 13.8286 18.4252 12.6635 18.4252C11.4122 18.4252 11.0581 19 10.1001 19C9.03845 19 8.28755 18.0838 7.62334 17.2295C6.76043 16.1113 6.02699 14.3565 6.00109 12.6715C5.98364 11.7787 6.1739 10.901 6.65686 10.1555C7.33852 9.11482 8.55549 8.40833 9.88447 8.38504C10.9027 8.35415 11.809 9.01404 12.4304 9.01404C13.026 9.01404 14.1393 8.38504 15.3991 8.38504C15.9428 8.38554 17.3929 8.53292 18.2907 9.77521ZM12.3443 8.20677C12.163 7.3914 12.6635 6.57604 13.1295 6.05593C13.7251 5.42693 14.6657 5 15.4768 5C15.5286 5.81537 15.2004 6.61503 14.6139 7.19744C14.0876 7.82644 13.1813 8.29996 12.3443 8.20677Z" fill="white"/>
</svg>
