<svg width="20" height="21" viewBox="0 0 20 21" fill="none" xmlns="http://www.w3.org/2000/svg">
<path d="M2.74602 13.1926C3.07151 13.5205 3.59911 13.5204 3.92449 13.1924C4.24987 12.8643 4.24979 12.3326 3.9243 12.0047L2.01214 10.0784L4.9027 7.16533C6.64748 5.40698 9.12439 4.69054 11.4947 5.19386C11.9451 5.28947 12.387 4.99908 12.4819 4.54524C12.5768 4.0914 12.2886 3.64599 11.8383 3.55037C8.9224 2.93124 5.87153 3.81364 3.72419 5.97769L0.244308 9.48463C-0.0811495 9.81262 -0.0811104 10.3444 0.244425 10.6724L2.74602 13.1926Z" fill="#B8B8B8"/>
<path d="M19.7563 9.48371L17.2547 6.96353C16.9292 6.63562 16.4016 6.6357 16.0762 6.96373C15.7509 7.29175 15.7509 7.82346 16.0764 8.15137L17.9886 10.0777L15.098 12.9908C13.3533 14.7492 10.8763 15.4656 8.506 14.9622C8.05566 14.8666 7.61368 15.157 7.5188 15.6109C7.42392 16.0647 7.71208 16.5101 8.16241 16.6057C11.0783 17.2249 14.1292 16.3425 16.2765 14.1784L19.7564 10.6715C20.0819 10.3434 20.0818 9.81162 19.7563 9.48371Z" fill="#B8B8B8"/>
<path d="M5.83374 10.0781C5.83374 10.5418 6.20681 10.9178 6.66703 10.9178C7.12725 10.9178 7.50032 10.5418 7.50032 10.0781C7.50032 8.68678 8.6197 7.55869 10.0002 7.55869C10.4605 7.55869 10.8335 7.18272 10.8335 6.71892C10.8335 6.25512 10.4605 5.87915 10.0002 5.87915C7.69926 5.87911 5.83374 7.75914 5.83374 10.0781Z" fill="#B8B8B8"/>
<path d="M12.5002 10.0781C12.5002 11.4694 11.3808 12.5974 10.0003 12.5974C9.54007 12.5974 9.16699 12.9734 9.16699 13.4372C9.16699 13.901 9.54007 14.277 10.0003 14.277C12.3013 14.277 14.1668 12.397 14.1668 10.0781C14.1668 9.61426 13.7937 9.23828 13.3335 9.23828C12.8733 9.23828 12.5002 9.6143 12.5002 10.0781Z" fill="#B8B8B8"/>
<path d="M19.7552 0.245962C19.4298 -0.0819874 18.9022 -0.0819874 18.5767 0.245962L0.244064 18.7212C-0.0813546 19.0492 -0.0813546 19.5809 0.244064 19.9089C0.569482 20.2368 1.09712 20.2368 1.42254 19.9089L19.7552 1.4336C20.0807 1.10565 20.0807 0.573912 19.7552 0.245962Z" fill="#B8B8B8"/>
</svg>
