<svg width="26" height="26" viewBox="0 0 26 26" fill="none" xmlns="http://www.w3.org/2000/svg">
<g clip-path="url(#clip0_35_6167)">
<path d="M13 0C20.1801 0 26 5.82075 26 13C26 20.1801 20.1801 26 13 26C5.81985 26 0 20.1801 0 13C0 5.82075 5.81994 0 13 0Z" fill="#3B5998"/>
<path d="M14.5827 8.94974H16.2581V6.47485H14.2886V6.48378C11.9023 6.5683 11.4132 7.90971 11.3701 9.3186H11.3652V10.5544H9.74023V12.9781H11.3652V19.4748H13.8141V12.9781H15.8202L16.2077 10.5544H13.8149V9.80778C13.8149 9.33163 14.1317 8.94974 14.5827 8.94974Z" fill="white"/>
</g>
<defs>
<clipPath id="clip0_35_6167">
<rect width="26" height="26" fill="white"/>
</clipPath>
</defs>
</svg>
