<svg width="30" height="33" viewBox="0 0 30 33" fill="none" xmlns="http://www.w3.org/2000/svg">
<path d="M19.4481 15.7626C19.0939 15.7626 18.7396 15.5823 18.533 15.2669L13.8097 8.08744C13.6474 7.83211 13.5883 7.53171 13.6474 7.24634C13.7064 6.96096 13.8688 6.69058 14.1197 6.52537L22.474 0.832832C23.1234 0.382237 23.9057 0.232057 24.6732 0.382255C25.4408 0.532453 26.105 0.983043 26.5478 1.64392L29.2341 5.71428C30.1345 7.08109 29.7803 8.94356 28.4223 9.85977L20.0828 15.5523C19.8762 15.7025 19.6695 15.7626 19.4481 15.7626ZM16.2747 7.77204L19.7581 13.074L27.1825 8.01232C27.5219 7.78702 27.6105 7.32141 27.3744 6.99098L24.688 2.92061C24.5847 2.75539 24.4223 2.65027 24.2304 2.60521C24.0385 2.56015 23.8467 2.60517 23.6843 2.71031L16.2747 7.77204Z" fill="white"/>
<path d="M11.9353 19.8481C11.5811 19.8481 11.2268 19.6679 11.0202 19.3525L7.24154 13.6148C6.90205 13.1041 7.03489 12.3982 7.5515 12.0527L14.6069 7.24636C14.8578 7.08114 15.153 7.02104 15.4335 7.08112C15.7287 7.1412 15.9796 7.30643 16.142 7.56177L19.9206 13.2994C20.2601 13.8101 20.1273 14.5161 19.6107 14.8615L12.5552 19.6679C12.3634 19.788 12.142 19.8481 11.9353 19.8481ZM9.69174 13.2994L12.2305 17.1596L17.4409 13.6148L14.9021 9.73969L9.69174 13.2994Z" fill="white"/>
<path d="M5.05651 23.7234C4.22994 23.7234 3.40337 23.3179 2.90152 22.5518L1.23362 20.0285C0.849856 19.4427 0.717011 18.7518 0.849853 18.0609C0.982695 17.37 1.36646 16.7842 1.9421 16.3937L7.77239 12.4284C8.27423 12.083 8.96797 12.2182 9.30745 12.7439L12.6137 17.7605C12.9532 18.2712 12.8204 18.9771 12.3038 19.3226L6.47348 23.2878C6.04544 23.5732 5.54359 23.7234 5.05651 23.7234ZM8.08235 14.9067L3.18197 18.2411C3.0196 18.3613 2.96056 18.5866 3.07865 18.7668L4.74654 21.2902C4.86463 21.4554 5.08603 21.5154 5.26315 21.3953L10.1635 18.0609L8.08235 14.9067Z" fill="white"/>
<path d="M8.42197 32.6298C8.27437 32.6298 8.11201 32.5997 7.96441 32.5246C7.40352 32.2693 7.16735 31.5934 7.41828 31.0376L14.0456 16.3181C14.2965 15.7473 14.9608 15.507 15.5069 15.7623C16.0678 16.0177 16.3039 16.6936 16.053 17.2493L9.42567 31.9689C9.23379 32.3894 8.83526 32.6298 8.42197 32.6298Z" fill="white"/>
<path d="M21.5298 32.6298C21.1018 32.6298 20.7033 32.3895 20.5261 31.9689L13.9726 17.2494C13.7217 16.6786 13.9726 16.0177 14.5187 15.7624C15.0649 15.5071 15.7291 15.7624 15.98 16.3182L22.5335 31.0377C22.7844 31.6085 22.5335 32.2693 21.9874 32.5247C21.8398 32.5998 21.6922 32.6298 21.5298 32.6298Z" fill="white"/>
</svg>
